Coordinates
version=1
nRows=16
nColumns=22
inDegrees=yes

Units are S.I. units (second, meters, Newtons, ...)
If the header above contains a line with 'inDegrees', this indicates whether rotational values are in degrees (yes) or radians (no).

endheader
time	pelvis_tilt	pelvis_list	pelvis_rotation	pelvis_tx	pelvis_ty	pelvis_tz	hip_flexion_r	hip_adduction_r	hip_rotation_r	knee_angle_r	ankle_angle_r	subtalar_angle_r	hip_flexion_l	hip_adduction_l	hip_rotation_l	knee_angle_l	ankle_angle_l	subtalar_angle_l	lumbar_extension	lumbar_bending	lumbar_rotation
      5.73000000	     -7.11536845	      0.99572254	    291.12989084	     -0.32643593	      0.95718353	      0.63161911	     13.85978019	     -1.90046364	     -5.99102388	    -62.74202542	     -4.49530285	      9.27962913	     21.28724980	      0.23252795	     -5.09514226	    -24.80779657	      9.08345144	     -9.50981841	      0.50266649	      0.78916513	     -6.73527340
      5.74000000	     -6.98482503	      0.80075436	    292.11876049	     -0.32099638	      0.95807801	      0.63769009	     14.58033409	     -2.24703515	     -6.03953296	    -62.96110102	     -3.97180932	      8.78439979	     20.34618554	      0.72309669	     -4.34970106	    -24.34615314	      9.32387471	     -9.55360726	      0.36336045	      0.77400431	     -7.15437026
      5.75000000	     -6.87540613	      0.64693014	    293.15883335	     -0.31553869	      0.95885317	      0.64354110	     15.29333268	     -2.58436992	     -6.08736173	    -62.97462507	     -3.29296540	      8.54476756	     19.47902663	      1.19712384	     -3.56561167	    -23.91549354	      9.55784908	     -9.55003268	      0.27152032	      0.77062428	     -7.61381297
      5.76000000	     -6.75040577	      0.43413362	    294.21936539	     -0.31004285	      0.95970604	      0.64929246	     15.86597503	     -2.90854533	     -6.15679710	    -62.74963076	     -2.62061174	      7.96748492	     18.51070574	      1.64843028	     -2.70998412	    -23.42881393	      9.76019295	     -9.59374693	      0.11565349	      0.78365197	     -8.02502640
      5.77000000	     -6.64018421	      0.26899509	    295.31978861	     -0.30454815	      0.96044697	      0.65484631	     16.43884742	     -3.23966648	     -6.23649320	    -62.33301445	     -1.86151664	      7.59514388	     17.60229629	      2.09046677	     -1.79685486	    -22.94753031	      9.93378774	     -9.58888984	      0.01372188	      0.79559022	     -8.44313000
      5.78000000	     -6.51680812	      0.07056635	    296.42560082	     -0.29907896	      0.96118767	      0.66031351	     16.90133309	     -3.55322825	     -6.31827176	    -61.70599697	     -1.00985510	      6.98657244	     16.65121930	      2.49606634	     -0.89162585	    -22.46732517	     10.12101765	     -9.61448832	     -0.12587915	      0.81275746	     -8.83525138
      5.79000000	     -6.40072722	     -0.09043329	    297.56296590	     -0.29362458	      0.96183936	      0.66560490	     17.35583026	     -3.87413683	     -6.40816710	    -60.90703070	     -0.15553962	      6.55103563	     15.73335825	      2.89718700	      0.09814164	    -21.97415127	     10.27711002	     -9.60258816	     -0.22662103	      0.82263154	     -9.22017581
      5.80000000	     -6.27704694	     -0.28033026	    298.69874494	     -0.28819412	      0.96247953	      0.67084820	     17.70947940	     -4.17848140	     -6.51828347	    -59.92128983	      0.76006238	      5.91339046	     14.77837157	      3.25070234	      1.05280591	    -21.47965743	     10.44582814	     -9.61332403	     -0.35275614	      0.84217274	     -9.55218510
      5.81000000	     -6.15058419	     -0.44849197	    299.84787343	     -0.28281758	      0.96304172	      0.67595719	     18.04086646	     -4.47110458	     -6.61019496	    -58.79247916	      1.67797308	      5.29985233	     13.84857844	      3.58971520	      2.04466853	    -20.99607761	     10.60538842	     -9.61093646	     -0.46056880	      0.84941247	     -9.89178466
      5.82000000	     -6.03148962	     -0.59763051	    301.01967579	     -0.27746236	      0.96353731	      0.68094754	     18.35205865	     -4.75072863	     -6.70440689	    -57.53274317	      2.56076690	      4.80459808	     12.93721744	      3.90667833	      3.09278304	    -20.50914076	     10.74991133	     -9.58234842	     -0.54369231	      0.85630445	    -10.21344294
      5.83000000	     -5.90769760	     -0.75953062	    302.19562586	     -0.27214987	      0.96400377	      0.68587402	     18.60375635	     -5.00200553	     -6.80192741	    -56.15019248	      3.44651644	      4.17307534	     12.02143148	      4.18087773	      4.11682676	    -20.04193619	     10.89397127	     -9.55897763	     -0.63832472	      0.86571085	    -10.50068890
      5.84000000	     -5.79494312	     -0.88672278	    303.38785386	     -0.26689101	      0.96436982	      0.69065960	     18.87812177	     -5.22212676	     -6.84978089	    -54.69816194	      4.27743381	      3.64210594	     11.16199305	      4.43707860	      5.18057957	    -19.60415222	     11.02810550	     -9.51963422	     -0.69604562	      0.86779762	    -10.79933065
      5.85000000	     -5.69248363	     -1.01284541	    304.58380431	     -0.26171049	      0.96468804	      0.69536239	     19.13915333	     -5.39039518	     -6.85933761	    -53.17815245	      5.05639645	      3.08878148	     10.32713173	      4.64809860	      6.23997146	    -19.19572518	     11.15810982	     -9.47828426	     -0.74830334	      0.87576971	    -11.06732936
      5.86000000	     -5.60881258	     -1.11802533	    305.78874282	     -0.25661960	      0.96492239	      0.69994945	     19.42605477	     -5.50578020	     -6.79988397	    -51.62635163	      5.75989816	      2.61864305	      9.54738420	      4.82379843	      7.30632902	    -18.82482562	     11.28610985	     -9.43237012	     -0.77399143	      0.88609235	    -11.34032095
      5.87000000	     -5.55619088	     -1.17026178	    307.01423162	     -0.25165312	      0.96502311	      0.70437986	     19.79127487	     -5.58905066	     -6.67206375	    -50.07905855	      6.37530409	      2.38562259	      8.86928611	      4.98054976	      8.39942049	    -18.50436567	     11.41064638	     -9.37786488	     -0.74414178	      0.88225521	    -11.62726323
      5.88000000	     -5.52676534	     -1.27738103	    308.22279588	     -0.24679337	      0.96515304	      0.70878979	     20.11087491	     -5.56435566	     -6.47112059	    -48.49982871	      6.85212193	      2.12677599	      8.16393333	      5.04495425	      9.47104236	    -18.18796923	     11.56162433	     -9.33116065	     -0.75043472	      0.93007976	    -11.85705831
